<svg xmlns="http://www.w3.org/2000/svg" viewBox="0 0 512 512">
  <defs>
    <linearGradient id="bg" x1="0%" y1="0%" x2="100%" y2="100%">
      <stop offset="0%" style="stop-color:#6366f1"/>
      <stop offset="50%" style="stop-color:#8b5cf6"/>
      <stop offset="100%" style="stop-color:#a855f7"/>
    </linearGradient>
  </defs>
  <!-- Rounded square background -->
  <rect width="512" height="512" rx="96" ry="96" fill="url(#bg)"/>
  <!-- Cloud shape -->
  <path d="M380 280c0-5.2-.4-10.3-1.2-15.2C376 218 336 182 288 182c-32 0-60.4 16.8-76.8 42.2C202 218 192 214 180 214c-33.2 0-60 26.8-60 60 0 2 .1 4 .3 6C93.6 286 72 311.6 72 342c0 35.4 28.6 64 64 64h240c35.4 0 64-28.6 64-64 0-27.2-17-50.4-40-59.6 0-.8 0-1.6 0-2.4z" fill="rgba(255,255,255,0.95)"/>
  <!-- Upload arrow -->
  <path d="M256 240l-48 48h32v56h32v-56h32z" fill="#6366f1" stroke="#6366f1" stroke-width="4" stroke-linejoin="round"/>
</svg>